<svg xmlns="http://www.w3.org/2000/svg" viewBox="0 0 512 512"><path fill="#ff0040" d="M112.2 469.3c-7.9 2.5-16.1 3.5-24 2.8c-15.3-1.3-30-7.3-41.9-17c-17.7-14.4-27.1-36.9-25.2-59.5l37.2-229.4c1.8-11.2 12.3-18.7 23.5-16.9s18.7 12.3 16.9 23.5l-37.2 229.4c-.6 3.6 1.4 7 3.9 9.1c1.9 1.6 4.3 2.5 6.7 2.8c1.3 .1 2.6 0 3.9-.4c2.5-.8 4.6-2.5 5.8-4.8l82-153.2c4.3-8 12.7-12.9 21.8-12.8s17.3 5.4 21.2 13.6l71.6 148.9c3.2 6.7 1.2 14.8-4.4 19.1L112.2 469.3zM342.3 124.9c-2.3 4.3-4.2 8.7-5.7 13.4l-57.9 193c-1.7 5.7 .3 11.9 4.9 15.5l112.7 86.8c9.5 7.4 21.9 9.6 33.4 6.1c11.6-3.6 20.9-12.5 25-23.9l69-194.2c3.8-10.6-1.7-22.3-12.3-26.1s-22.3 1.7-26.1 12.3l-69 194.2c-1.3 3.6-4.3 6.4-8 7.5s-7.5 .4-10.5-1.9l-112.7-86.8c-.8-.6-1.1-1.6-.8-2.6l57.9-193c.5-1.5 1.1-2.9 1.8-4.3L342.3 124.9z"/></svg>
